{
    "asset" : {
        "generator" : "Khronos glTF Blender I/O v1.8.19",
        "version" : "2.0"
    },
    "scene" : 0,
    "scenes" : [
        {
            "name" : "Scene",
            "nodes" : [
                0
            ]
        }
    ],
    "nodes" : [
        {
            "mesh" : 0,
            "name" : "fireball",
            "rotation" : [
                0.7071068286895752,
                0,
                0,
                0.7071067094802856
            ]
        }
    ],
    "materials" : [
        {
            "alphaMode" : "BLEND",
            "doubleSided" : true,
            "name" : "standardSurface2SG.002",
            "pbrMetallicRoughness" : {
                "baseColorFactor" : [
                    0.5872259140014648,
                    0.05973643809556961,
                    0,
                    1
                ],
                "metallicFactor" : 0
            }
        },
        {
            "alphaMode" : "BLEND",
            "doubleSided" : true,
            "name" : "standardSurface4SG",
            "pbrMetallicRoughness" : {
                "baseColorFactor" : [
                    0.32059264183044434,
                    0.0009881987934932113,
                    0,
                    1
                ],
                "metallicFactor" : 0
            }
        },
        {
            "alphaMode" : "BLEND",
            "doubleSided" : true,
            "name" : "standardSurface3SG.002",
            "pbrMetallicRoughness" : {
                "baseColorFactor" : [
                    0.5362233519554138,
                    0.07323966175317764,
                    0.0003317926311865449,
                    1
                ],
                "metallicFactor" : 0
            }
        }
    ],
    "meshes" : [
        {
            "name" : "fireball",
            "primitives" : [
                {
                    "attributes" : {
                        "POSITION" : 0,
                        "NORMAL" : 1,
                        "TEXCOORD_0" : 2
                    },
                    "indices" : 3,
                    "material" : 0
                },
                {
                    "attributes" : {
                        "POSITION" : 4,
                        "NORMAL" : 5,
                        "TEXCOORD_0" : 6
                    },
                    "indices" : 7,
                    "material" : 1
                },
                {
                    "attributes" : {
                        "POSITION" : 8,
                        "NORMAL" : 9,
                        "TEXCOORD_0" : 10
                    },
                    "indices" : 11,
                    "material" : 2
                }
            ]
        }
    ],
    "accessors" : [
        {
            "bufferView" : 0,
            "componentType" : 5126,
            "count" : 409,
            "max" : [
                1.1589210033416748,
                1.1018539667129517,
                1
            ],
            "min" : [
                -1.2021880149841309,
                -1,
                -2.8846049308776855
            ],
            "type" : "VEC3"
        },
        {
            "bufferView" : 1,
            "componentType" : 5126,
            "count" : 409,
            "type" : "VEC3"
        },
        {
            "bufferView" : 2,
            "componentType" : 5126,
            "count" : 409,
            "type" : "VEC2"
        },
        {
            "bufferView" : 3,
            "componentType" : 5123,
            "count" : 1746,
            "type" : "SCALAR"
        },
        {
            "bufferView" : 4,
            "componentType" : 5126,
            "count" : 120,
            "max" : [
                0.6802549958229065,
                1.1888020038604736,
                0.33288198709487915
            ],
            "min" : [
                -0.9028360247612,
                0.753017008304596,
                -0.811269998550415
            ],
            "type" : "VEC3"
        },
        {
            "bufferView" : 5,
            "componentType" : 5126,
            "count" : 120,
            "type" : "VEC3"
        },
        {
            "bufferView" : 6,
            "componentType" : 5126,
            "count" : 120,
            "type" : "VEC2"
        },
        {
            "bufferView" : 7,
            "componentType" : 5123,
            "count" : 210,
            "type" : "SCALAR"
        },
        {
            "bufferView" : 8,
            "componentType" : 5126,
            "count" : 160,
            "max" : [
                1.13572096824646,
                1.008715033531189,
                -0.4149540066719055
            ],
            "min" : [
                -1.2021880149841309,
                -0.9510570168495178,
                -2.8846049308776855
            ],
            "type" : "VEC3"
        },
        {
            "bufferView" : 9,
            "componentType" : 5126,
            "count" : 160,
            "type" : "VEC3"
        },
        {
            "bufferView" : 10,
            "componentType" : 5126,
            "count" : 160,
            "type" : "VEC2"
        },
        {
            "bufferView" : 11,
            "componentType" : 5123,
            "count" : 540,
            "type" : "SCALAR"
        }
    ],
    "bufferViews" : [
        {
            "buffer" : 0,
            "byteLength" : 4908,
            "byteOffset" : 0
        },
        {
            "buffer" : 0,
            "byteLength" : 4908,
            "byteOffset" : 4908
        },
        {
            "buffer" : 0,
            "byteLength" : 3272,
            "byteOffset" : 9816
        },
        {
            "buffer" : 0,
            "byteLength" : 3492,
            "byteOffset" : 13088
        },
        {
            "buffer" : 0,
            "byteLength" : 1440,
            "byteOffset" : 16580
        },
        {
            "buffer" : 0,
            "byteLength" : 1440,
            "byteOffset" : 18020
        },
        {
            "buffer" : 0,
            "byteLength" : 960,
            "byteOffset" : 19460
        },
        {
            "buffer" : 0,
            "byteLength" : 420,
            "byteOffset" : 20420
        },
        {
            "buffer" : 0,
            "byteLength" : 1920,
            "byteOffset" : 20840
        },
        {
            "buffer" : 0,
            "byteLength" : 1920,
            "byteOffset" : 22760
        },
        {
            "buffer" : 0,
            "byteLength" : 1280,
            "byteOffset" : 24680
        },
        {
            "buffer" : 0,
            "byteLength" : 1080,
            "byteOffset" : 25960
        }
    ],
    "buffers" : [
        {
            "byteLength" : 27040,
            "uri" : "data:application/octet-stream;base64,"
        }
    ]
}
