{
    "asset" : {
        "generator" : "Khronos glTF Blender I/O v1.8.19",
        "version" : "2.0"
    },
    "scene" : 0,
    "scenes" : [
        {
            "name" : "Scene",
            "nodes" : [
                0
            ]
        }
    ],
    "nodes" : [
        {
            "mesh" : 0,
            "name" : "waterDrop",
            "rotation" : [
                0.7071068286895752,
                0,
                0,
                0.7071067094802856
            ]
        }
    ],
    "materials" : [
        {
            "alphaMode" : "BLEND",
            "doubleSided" : true,
            "name" : "standardSurface3SG.001",
            "pbrMetallicRoughness" : {
                "baseColorFactor" : [
                    0,
                    0.21061335504055023,
                    0.6048282384872437,
                    1
                ],
                "metallicFactor" : 0
            }
        },
        {
            "alphaMode" : "BLEND",
            "doubleSided" : true,
            "name" : "standardSurface2SG.001",
            "pbrMetallicRoughness" : {
                "baseColorFactor" : [
                    0.0029773497954010963,
                    0,
                    0.1424330770969391,
                    1
                ],
                "metallicFactor" : 0
            }
        }
    ],
    "meshes" : [
        {
            "name" : "waterDrop",
            "primitives" : [
                {
                    "attributes" : {
                        "POSITION" : 0,
                        "NORMAL" : 1,
                        "TEXCOORD_0" : 2
                    },
                    "indices" : 3,
                    "material" : 0
                },
                {
                    "attributes" : {
                        "POSITION" : 4,
                        "NORMAL" : 5,
                        "TEXCOORD_0" : 6
                    },
                    "indices" : 7,
                    "material" : 1
                }
            ]
        }
    ],
    "accessors" : [
        {
            "bufferView" : 0,
            "componentType" : 5126,
            "count" : 455,
            "max" : [
                1,
                1,
                1
            ],
            "min" : [
                -1,
                -1,
                -2.766623020172119
            ],
            "type" : "VEC3"
        },
        {
            "bufferView" : 1,
            "componentType" : 5126,
            "count" : 455,
            "type" : "VEC3"
        },
        {
            "bufferView" : 2,
            "componentType" : 5126,
            "count" : 455,
            "type" : "VEC2"
        },
        {
            "bufferView" : 3,
            "componentType" : 5123,
            "count" : 2286,
            "type" : "SCALAR"
        },
        {
            "bufferView" : 4,
            "componentType" : 5126,
            "count" : 178,
            "max" : [
                1.0030490159988403,
                0.6092259883880615,
                -0.30901700258255005
            ],
            "min" : [
                0.15672099590301514,
                -0.8476229906082153,
                -1.5238560438156128
            ],
            "type" : "VEC3"
        },
        {
            "bufferView" : 5,
            "componentType" : 5126,
            "count" : 178,
            "type" : "VEC3"
        },
        {
            "bufferView" : 6,
            "componentType" : 5126,
            "count" : 178,
            "type" : "VEC2"
        },
        {
            "bufferView" : 7,
            "componentType" : 5123,
            "count" : 318,
            "type" : "SCALAR"
        }
    ],
    "bufferViews" : [
        {
            "buffer" : 0,
            "byteLength" : 5460,
            "byteOffset" : 0
        },
        {
            "buffer" : 0,
            "byteLength" : 5460,
            "byteOffset" : 5460
        },
        {
            "buffer" : 0,
            "byteLength" : 3640,
            "byteOffset" : 10920
        },
        {
            "buffer" : 0,
            "byteLength" : 4572,
            "byteOffset" : 14560
        },
        {
            "buffer" : 0,
            "byteLength" : 2136,
            "byteOffset" : 19132
        },
        {
            "buffer" : 0,
            "byteLength" : 2136,
            "byteOffset" : 21268
        },
        {
            "buffer" : 0,
            "byteLength" : 1424,
            "byteOffset" : 23404
        },
        {
            "buffer" : 0,
            "byteLength" : 636,
            "byteOffset" : 24828
        }
    ],
    "buffers" : [
        {
            "byteLength" : 25464,
            "uri" : "data:application/octet-stream;base64,"
        }
    ]
}
