{
    "asset" : {
        "generator" : "Khronos glTF Blender I/O v1.8.19",
        "version" : "2.0"
    },
    "scene" : 0,
    "scenes" : [
        {
            "name" : "Scene",
            "nodes" : [
                0
            ]
        }
    ],
    "nodes" : [
        {
            "mesh" : 0,
            "name" : "balloon",
            "rotation" : [
                0.7071068286895752,
                0,
                0,
                0.7071067094802856
            ]
        }
    ],
    "materials" : [
        {
            "alphaMode" : "BLEND",
            "doubleSided" : true,
            "name" : "standardSurface2SG",
            "pbrMetallicRoughness" : {
                "baseColorFactor" : [
                    1,
                    0.053002454340457916,
                    0.0475037582218647,
                    1
                ],
                "metallicFactor" : 0
            }
        }
    ],
    "meshes" : [
        {
            "name" : "balloon",
            "primitives" : [
                {
                    "attributes" : {
                        "POSITION" : 0,
                        "NORMAL" : 1,
                        "TEXCOORD_0" : 2
                    },
                    "indices" : 3,
                    "material" : 0
                }
            ]
        }
    ],
    "accessors" : [
        {
            "bufferView" : 0,
            "componentType" : 5126,
            "count" : 502,
            "max" : [
                2.352850914001465,
                2.3036890029907227,
                0.020541999489068985
            ],
            "min" : [
                -2.3528521060943604,
                -2.303689956665039,
                -6.034645080566406
            ],
            "type" : "VEC3"
        },
        {
            "bufferView" : 1,
            "componentType" : 5126,
            "count" : 502,
            "type" : "VEC3"
        },
        {
            "bufferView" : 2,
            "componentType" : 5126,
            "count" : 502,
            "type" : "VEC2"
        },
        {
            "bufferView" : 3,
            "componentType" : 5123,
            "count" : 2400,
            "type" : "SCALAR"
        }
    ],
    "bufferViews" : [
        {
            "buffer" : 0,
            "byteLength" : 6024,
            "byteOffset" : 0
        },
        {
            "buffer" : 0,
            "byteLength" : 6024,
            "byteOffset" : 6024
        },
        {
            "buffer" : 0,
            "byteLength" : 4016,
            "byteOffset" : 12048
        },
        {
            "buffer" : 0,
            "byteLength" : 4800,
            "byteOffset" : 16064
        }
    ],
    "buffers" : [
        {
            "byteLength" : 20864,
            "uri" : "data:application/octet-stream;base64,"
        }
    ]
}
