{
    "asset" : {
        "generator" : "Khronos glTF Blender I/O v1.8.19",
        "version" : "2.0"
    },
    "scene" : 0,
    "scenes" : [
        {
            "name" : "Scene",
            "nodes" : [
                0
            ]
        }
    ],
    "nodes" : [
        {
            "mesh" : 0,
            "name" : "cactus",
            "rotation" : [
                0.7071068286895752,
                0,
                0,
                0.7071067094802856
            ]
        }
    ],
    "materials" : [
        {
            "alphaMode" : "BLEND",
            "doubleSided" : true,
            "name" : "standardSurface2SG",
            "pbrMetallicRoughness" : {
                "baseColorFactor" : [
                    0.05883810296654701,
                    0.3457833230495453,
                    0.038026001304388046,
                    1
                ],
                "metallicFactor" : 0
            }
        },
        {
            "alphaMode" : "BLEND",
            "doubleSided" : true,
            "name" : "standardSurface3SG",
            "pbrMetallicRoughness" : {
                "baseColorFactor" : [
                    0,
                    0,
                    0,
                    1
                ],
                "metallicFactor" : 0
            }
        },
        {
            "alphaMode" : "BLEND",
            "doubleSided" : true,
            "name" : "standardSurface4SG",
            "pbrMetallicRoughness" : {
                "baseColorFactor" : [
                    0.12824708223342896,
                    0.03894829377532005,
                    0.008444304578006268,
                    1
                ],
                "metallicFactor" : 0
            }
        }
    ],
    "meshes" : [
        {
            "name" : "cactus",
            "primitives" : [
                {
                    "attributes" : {
                        "POSITION" : 0,
                        "NORMAL" : 1,
                        "TEXCOORD_0" : 2
                    },
                    "indices" : 3,
                    "material" : 0
                },
                {
                    "attributes" : {
                        "POSITION" : 4,
                        "NORMAL" : 5,
                        "TEXCOORD_0" : 6
                    },
                    "indices" : 7,
                    "material" : 1
                },
                {
                    "attributes" : {
                        "POSITION" : 8,
                        "NORMAL" : 9,
                        "TEXCOORD_0" : 10
                    },
                    "indices" : 11,
                    "material" : 2
                }
            ]
        }
    ],
    "accessors" : [
        {
            "bufferView" : 0,
            "componentType" : 5126,
            "count" : 576,
            "max" : [
                2.4780631065368652,
                0.5017340183258057,
                0.7920539975166321
            ],
            "min" : [
                -2.8333311080932617,
                -0.5017340183258057,
                -8.02216911315918
            ],
            "type" : "VEC3"
        },
        {
            "bufferView" : 1,
            "componentType" : 5126,
            "count" : 576,
            "type" : "VEC3"
        },
        {
            "bufferView" : 2,
            "componentType" : 5126,
            "count" : 576,
            "type" : "VEC2"
        },
        {
            "bufferView" : 3,
            "componentType" : 5123,
            "count" : 1782,
            "type" : "SCALAR"
        },
        {
            "bufferView" : 4,
            "componentType" : 5126,
            "count" : 32,
            "max" : [
                0.3125,
                -0.5,
                -4.798508167266846
            ],
            "min" : [
                -0.3125,
                -0.6974790096282959,
                -5.439001083374023
            ],
            "type" : "VEC3"
        },
        {
            "bufferView" : 5,
            "componentType" : 5126,
            "count" : 32,
            "type" : "VEC3"
        },
        {
            "bufferView" : 6,
            "componentType" : 5126,
            "count" : 32,
            "type" : "VEC2"
        },
        {
            "bufferView" : 7,
            "componentType" : 5123,
            "count" : 60,
            "type" : "SCALAR"
        },
        {
            "bufferView" : 8,
            "componentType" : 5126,
            "count" : 168,
            "max" : [
                1.4912389516830444,
                1.4370189905166626,
                -7.4437761306762695
            ],
            "min" : [
                -1.4912389516830444,
                -1.5454599857330322,
                -8.582629203796387
            ],
            "type" : "VEC3"
        },
        {
            "bufferView" : 9,
            "componentType" : 5126,
            "count" : 168,
            "type" : "VEC3"
        },
        {
            "bufferView" : 10,
            "componentType" : 5126,
            "count" : 168,
            "type" : "VEC2"
        },
        {
            "bufferView" : 11,
            "componentType" : 5123,
            "count" : 480,
            "type" : "SCALAR"
        }
    ],
    "bufferViews" : [
        {
            "buffer" : 0,
            "byteLength" : 6912,
            "byteOffset" : 0
        },
        {
            "buffer" : 0,
            "byteLength" : 6912,
            "byteOffset" : 6912
        },
        {
            "buffer" : 0,
            "byteLength" : 4608,
            "byteOffset" : 13824
        },
        {
            "buffer" : 0,
            "byteLength" : 3564,
            "byteOffset" : 18432
        },
        {
            "buffer" : 0,
            "byteLength" : 384,
            "byteOffset" : 21996
        },
        {
            "buffer" : 0,
            "byteLength" : 384,
            "byteOffset" : 22380
        },
        {
            "buffer" : 0,
            "byteLength" : 256,
            "byteOffset" : 22764
        },
        {
            "buffer" : 0,
            "byteLength" : 120,
            "byteOffset" : 23020
        },
        {
            "buffer" : 0,
            "byteLength" : 2016,
            "byteOffset" : 23140
        },
        {
            "buffer" : 0,
            "byteLength" : 2016,
            "byteOffset" : 25156
        },
        {
            "buffer" : 0,
            "byteLength" : 1344,
            "byteOffset" : 27172
        },
        {
            "buffer" : 0,
            "byteLength" : 960,
            "byteOffset" : 28516
        }
    ],
    "buffers" : [
        {
            "byteLength" : 29476,
            "uri" : "data:application/octet-stream;base64,"
        }
    ]
}
