{
    "asset" : {
        "generator" : "Khronos glTF Blender I/O v1.8.19",
        "version" : "2.0"
    },
    "scene" : 0,
    "scenes" : [
        {
            "name" : "Scene",
            "nodes" : [
                0
            ]
        }
    ],
    "nodes" : [
        {
            "mesh" : 0,
            "name" : "cactus",
            "rotation" : [
                0.7071068286895752,
                0,
                0,
                0.7071067094802856
            ]
        }
    ],
    "materials" : [
        {
            "alphaMode" : "BLEND",
            "doubleSided" : true,
            "name" : "standardSurface3SG",
            "pbrMetallicRoughness" : {
                "baseColorFactor" : [
                    0,
                    0.2808910608291626,
                    0.001082083908841014,
                    1
                ],
                "metallicFactor" : 0
            }
        },
        {
            "alphaMode" : "BLEND",
            "doubleSided" : true,
            "name" : "standardSurface4SG",
            "pbrMetallicRoughness" : {
                "baseColorFactor" : [
                    0.013997073285281658,
                    0.003820673795416951,
                    0,
                    1
                ],
                "metallicFactor" : 0
            }
        }
    ],
    "meshes" : [
        {
            "name" : "cactus",
            "primitives" : [
                {
                    "attributes" : {
                        "POSITION" : 0,
                        "NORMAL" : 1,
                        "TEXCOORD_0" : 2
                    },
                    "indices" : 3,
                    "material" : 0
                },
                {
                    "attributes" : {
                        "POSITION" : 4,
                        "NORMAL" : 5,
                        "TEXCOORD_0" : 6
                    },
                    "indices" : 7,
                    "material" : 1
                },
                {
                    "attributes" : {
                        "POSITION" : 8,
                        "NORMAL" : 9,
                        "TEXCOORD_0" : 10
                    },
                    "indices" : 11,
                    "material" : 1
                }
            ]
        }
    ],
    "accessors" : [
        {
            "bufferView" : 0,
            "componentType" : 5126,
            "count" : 582,
            "max" : [
                2.4780631065368652,
                0.5017340183258057,
                0.7920539975166321
            ],
            "min" : [
                -2.8333311080932617,
                -0.5017340183258057,
                -8.02216911315918
            ],
            "type" : "VEC3"
        },
        {
            "bufferView" : 1,
            "componentType" : 5126,
            "count" : 582,
            "type" : "VEC3"
        },
        {
            "bufferView" : 2,
            "componentType" : 5126,
            "count" : 582,
            "type" : "VEC2"
        },
        {
            "bufferView" : 3,
            "componentType" : 5123,
            "count" : 1800,
            "type" : "SCALAR"
        },
        {
            "bufferView" : 4,
            "componentType" : 5126,
            "count" : 62,
            "max" : [
                0.3125,
                -0.5,
                -3.4068710803985596
            ],
            "min" : [
                -0.3125,
                -0.6974790096282959,
                -5.439001083374023
            ],
            "type" : "VEC3"
        },
        {
            "bufferView" : 5,
            "componentType" : 5126,
            "count" : 62,
            "type" : "VEC3"
        },
        {
            "bufferView" : 6,
            "componentType" : 5126,
            "count" : 62,
            "type" : "VEC2"
        },
        {
            "bufferView" : 7,
            "componentType" : 5123,
            "count" : 102,
            "type" : "SCALAR"
        },
        {
            "bufferView" : 8,
            "componentType" : 5126,
            "count" : 168,
            "max" : [
                1.4912389516830444,
                1.4370189905166626,
                -7.4437761306762695
            ],
            "min" : [
                -1.4912389516830444,
                -1.5454599857330322,
                -8.582629203796387
            ],
            "type" : "VEC3"
        },
        {
            "bufferView" : 9,
            "componentType" : 5126,
            "count" : 168,
            "type" : "VEC3"
        },
        {
            "bufferView" : 10,
            "componentType" : 5126,
            "count" : 168,
            "type" : "VEC2"
        },
        {
            "bufferView" : 11,
            "componentType" : 5123,
            "count" : 480,
            "type" : "SCALAR"
        }
    ],
    "bufferViews" : [
        {
            "buffer" : 0,
            "byteLength" : 6984,
            "byteOffset" : 0
        },
        {
            "buffer" : 0,
            "byteLength" : 6984,
            "byteOffset" : 6984
        },
        {
            "buffer" : 0,
            "byteLength" : 4656,
            "byteOffset" : 13968
        },
        {
            "buffer" : 0,
            "byteLength" : 3600,
            "byteOffset" : 18624
        },
        {
            "buffer" : 0,
            "byteLength" : 744,
            "byteOffset" : 22224
        },
        {
            "buffer" : 0,
            "byteLength" : 744,
            "byteOffset" : 22968
        },
        {
            "buffer" : 0,
            "byteLength" : 496,
            "byteOffset" : 23712
        },
        {
            "buffer" : 0,
            "byteLength" : 204,
            "byteOffset" : 24208
        },
        {
            "buffer" : 0,
            "byteLength" : 2016,
            "byteOffset" : 24412
        },
        {
            "buffer" : 0,
            "byteLength" : 2016,
            "byteOffset" : 26428
        },
        {
            "buffer" : 0,
            "byteLength" : 1344,
            "byteOffset" : 28444
        },
        {
            "buffer" : 0,
            "byteLength" : 960,
            "byteOffset" : 29788
        }
    ],
    "buffers" : [
        {
            "byteLength" : 30748,
            "uri" : "data:application/octet-stream;base64,"
        }
    ]
}
