{
    "asset" : {
        "generator" : "Khronos glTF Blender I/O v1.8.19",
        "version" : "2.0"
    },
    "scene" : 0,
    "scenes" : [
        {
            "name" : "Scene",
            "nodes" : [
                0
            ]
        }
    ],
    "nodes" : [
        {
            "mesh" : 0,
            "name" : "eyeball",
            "rotation" : [
                0.7071068286895752,
                0,
                0,
                0.7071067094802856
            ]
        }
    ],
    "materials" : [
        {
            "alphaMode" : "BLEND",
            "doubleSided" : true,
            "name" : "standardSurface2SG.003",
            "pbrMetallicRoughness" : {
                "metallicFactor" : 0
            }
        },
        {
            "alphaMode" : "BLEND",
            "doubleSided" : true,
            "name" : "standardSurface4SG",
            "pbrMetallicRoughness" : {
                "baseColorFactor" : [
                    0,
                    0,
                    0,
                    1
                ],
                "metallicFactor" : 0
            }
        },
        {
            "alphaMode" : "BLEND",
            "doubleSided" : true,
            "name" : "standardSurface3SG.001",
            "pbrMetallicRoughness" : {
                "baseColorFactor" : [
                    0.004037904087454081,
                    0.00685646990314126,
                    0.6870943307876587,
                    1
                ],
                "metallicFactor" : 0
            }
        }
    ],
    "meshes" : [
        {
            "name" : "eyeball",
            "primitives" : [
                {
                    "attributes" : {
                        "POSITION" : 0,
                        "NORMAL" : 1,
                        "TEXCOORD_0" : 2
                    },
                    "indices" : 3,
                    "material" : 0
                },
                {
                    "attributes" : {
                        "POSITION" : 4,
                        "NORMAL" : 5,
                        "TEXCOORD_0" : 6
                    },
                    "indices" : 7,
                    "material" : 1
                },
                {
                    "attributes" : {
                        "POSITION" : 8,
                        "NORMAL" : 9,
                        "TEXCOORD_0" : 10
                    },
                    "indices" : 11,
                    "material" : 2
                }
            ]
        }
    ],
    "accessors" : [
        {
            "bufferView" : 0,
            "componentType" : 5126,
            "count" : 356,
            "max" : [
                1.066236972808838,
                0.9284279942512512,
                -0.843779981136322
            ],
            "min" : [
                -1.096019983291626,
                -1.102702021598816,
                -2.970345973968506
            ],
            "type" : "VEC3"
        },
        {
            "bufferView" : 1,
            "componentType" : 5126,
            "count" : 356,
            "type" : "VEC3"
        },
        {
            "bufferView" : 2,
            "componentType" : 5126,
            "count" : 356,
            "type" : "VEC2"
        },
        {
            "bufferView" : 3,
            "componentType" : 5123,
            "count" : 1848,
            "type" : "SCALAR"
        },
        {
            "bufferView" : 4,
            "componentType" : 5126,
            "count" : 68,
            "max" : [
                0.3191959857940674,
                0.9100009799003601,
                -1.5454610586166382
            ],
            "min" : [
                -0.48169100284576416,
                -1.0581109523773193,
                -2.6533401012420654
            ],
            "type" : "VEC3"
        },
        {
            "bufferView" : 5,
            "componentType" : 5126,
            "count" : 68,
            "type" : "VEC3"
        },
        {
            "bufferView" : 6,
            "componentType" : 5126,
            "count" : 68,
            "type" : "VEC2"
        },
        {
            "bufferView" : 7,
            "componentType" : 5123,
            "count" : 192,
            "type" : "SCALAR"
        },
        {
            "bufferView" : 8,
            "componentType" : 5126,
            "count" : 63,
            "max" : [
                0.6205800175666809,
                0.931738018989563,
                -1.7329390048980713
            ],
            "min" : [
                -0.650363028049469,
                0.32384899258613586,
                -2.8508739471435547
            ],
            "type" : "VEC3"
        },
        {
            "bufferView" : 9,
            "componentType" : 5126,
            "count" : 63,
            "type" : "VEC3"
        },
        {
            "bufferView" : 10,
            "componentType" : 5126,
            "count" : 63,
            "type" : "VEC2"
        },
        {
            "bufferView" : 11,
            "componentType" : 5123,
            "count" : 240,
            "type" : "SCALAR"
        }
    ],
    "bufferViews" : [
        {
            "buffer" : 0,
            "byteLength" : 4272,
            "byteOffset" : 0
        },
        {
            "buffer" : 0,
            "byteLength" : 4272,
            "byteOffset" : 4272
        },
        {
            "buffer" : 0,
            "byteLength" : 2848,
            "byteOffset" : 8544
        },
        {
            "buffer" : 0,
            "byteLength" : 3696,
            "byteOffset" : 11392
        },
        {
            "buffer" : 0,
            "byteLength" : 816,
            "byteOffset" : 15088
        },
        {
            "buffer" : 0,
            "byteLength" : 816,
            "byteOffset" : 15904
        },
        {
            "buffer" : 0,
            "byteLength" : 544,
            "byteOffset" : 16720
        },
        {
            "buffer" : 0,
            "byteLength" : 384,
            "byteOffset" : 17264
        },
        {
            "buffer" : 0,
            "byteLength" : 756,
            "byteOffset" : 17648
        },
        {
            "buffer" : 0,
            "byteLength" : 756,
            "byteOffset" : 18404
        },
        {
            "buffer" : 0,
            "byteLength" : 504,
            "byteOffset" : 19160
        },
        {
            "buffer" : 0,
            "byteLength" : 480,
            "byteOffset" : 19664
        }
    ],
    "buffers" : [
        {
            "byteLength" : 20144,
            "uri" : "data:application/octet-stream;base64,"
        }
    ]
}
