{
    "asset" : {
        "generator" : "Khronos glTF Blender I/O v1.8.19",
        "version" : "2.0"
    },
    "scene" : 0,
    "scenes" : [
        {
            "name" : "Scene",
            "nodes" : [
                0
            ]
        }
    ],
    "nodes" : [
        {
            "mesh" : 0,
            "name" : "cannonExp",
            "rotation" : [
                0.7071068286895752,
                0,
                0,
                0.7071067094802856
            ]
        }
    ],
    "materials" : [
        {
            "alphaMode" : "BLEND",
            "doubleSided" : true,
            "name" : "aiStandardSurface1SG",
            "pbrMetallicRoughness" : {
                "baseColorFactor" : [
                    0,
                    0.005208954215049744,
                    0.010413809679448605,
                    1
                ],
                "metallicFactor" : 0
            }
        },
        {
            "alphaMode" : "BLEND",
            "doubleSided" : true,
            "name" : "aiStandardSurface2SG",
            "pbrMetallicRoughness" : {
                "baseColorFactor" : [
                    0.0534704327583313,
                    0.01725432276725769,
                    0.0020725287031382322,
                    1
                ],
                "metallicFactor" : 0
            }
        },
        {
            "alphaMode" : "BLEND",
            "doubleSided" : true,
            "name" : "aiStandardSurface3SG",
            "pbrMetallicRoughness" : {
                "baseColorFactor" : [
                    0.33297985792160034,
                    0.22554287314414978,
                    0.10125521570444107,
                    1
                ],
                "metallicFactor" : 0
            }
        }
    ],
    "meshes" : [
        {
            "name" : "cannonExp",
            "primitives" : [
                {
                    "attributes" : {
                        "POSITION" : 0,
                        "NORMAL" : 1,
                        "TEXCOORD_0" : 2
                    },
                    "indices" : 3,
                    "material" : 0
                },
                {
                    "attributes" : {
                        "POSITION" : 4,
                        "NORMAL" : 5,
                        "TEXCOORD_0" : 6
                    },
                    "indices" : 7,
                    "material" : 1
                },
                {
                    "attributes" : {
                        "POSITION" : 8,
                        "NORMAL" : 9,
                        "TEXCOORD_0" : 10
                    },
                    "indices" : 11,
                    "material" : 2
                }
            ]
        }
    ],
    "accessors" : [
        {
            "bufferView" : 0,
            "componentType" : 5126,
            "count" : 254,
            "max" : [
                3.4478909969329834,
                1.782410979270935,
                -1.0744880437850952
            ],
            "min" : [
                -4.299616813659668,
                -1.7751810550689697,
                -4.139664173126221
            ],
            "type" : "VEC3"
        },
        {
            "bufferView" : 1,
            "componentType" : 5126,
            "count" : 254,
            "type" : "VEC3"
        },
        {
            "bufferView" : 2,
            "componentType" : 5126,
            "count" : 254,
            "type" : "VEC2"
        },
        {
            "bufferView" : 3,
            "componentType" : 5123,
            "count" : 798,
            "type" : "SCALAR"
        },
        {
            "bufferView" : 4,
            "componentType" : 5126,
            "count" : 882,
            "max" : [
                -0.18115100264549255,
                1.9827860593795776,
                0.36659300327301025
            ],
            "min" : [
                -4.35701322555542,
                -1.9948760271072388,
                -3.8092689514160156
            ],
            "type" : "VEC3"
        },
        {
            "bufferView" : 5,
            "componentType" : 5126,
            "count" : 882,
            "type" : "VEC3"
        },
        {
            "bufferView" : 6,
            "componentType" : 5126,
            "count" : 882,
            "type" : "VEC2"
        },
        {
            "bufferView" : 7,
            "componentType" : 5123,
            "count" : 4800,
            "type" : "SCALAR"
        },
        {
            "bufferView" : 8,
            "componentType" : 5126,
            "count" : 1067,
            "max" : [
                -1.0535720586776733,
                1.8748379945755005,
                -0.5264359712600708
            ],
            "min" : [
                -3.4431469440460205,
                -1.8869270086288452,
                -2.9160120487213135
            ],
            "type" : "VEC3"
        },
        {
            "bufferView" : 9,
            "componentType" : 5126,
            "count" : 1067,
            "type" : "VEC3"
        },
        {
            "bufferView" : 10,
            "componentType" : 5126,
            "count" : 1067,
            "type" : "VEC2"
        },
        {
            "bufferView" : 11,
            "componentType" : 5123,
            "count" : 2112,
            "type" : "SCALAR"
        }
    ],
    "bufferViews" : [
        {
            "buffer" : 0,
            "byteLength" : 3048,
            "byteOffset" : 0
        },
        {
            "buffer" : 0,
            "byteLength" : 3048,
            "byteOffset" : 3048
        },
        {
            "buffer" : 0,
            "byteLength" : 2032,
            "byteOffset" : 6096
        },
        {
            "buffer" : 0,
            "byteLength" : 1596,
            "byteOffset" : 8128
        },
        {
            "buffer" : 0,
            "byteLength" : 10584,
            "byteOffset" : 9724
        },
        {
            "buffer" : 0,
            "byteLength" : 10584,
            "byteOffset" : 20308
        },
        {
            "buffer" : 0,
            "byteLength" : 7056,
            "byteOffset" : 30892
        },
        {
            "buffer" : 0,
            "byteLength" : 9600,
            "byteOffset" : 37948
        },
        {
            "buffer" : 0,
            "byteLength" : 12804,
            "byteOffset" : 47548
        },
        {
            "buffer" : 0,
            "byteLength" : 12804,
            "byteOffset" : 60352
        },
        {
            "buffer" : 0,
            "byteLength" : 8536,
            "byteOffset" : 73156
        },
        {
            "buffer" : 0,
            "byteLength" : 4224,
            "byteOffset" : 81692
        }
    ],
    "buffers" : [
        {
            "byteLength" : 85916,
            "uri" : "data:application/octet-stream;base64,"
        }
    ]
}
