{
    "asset" : {
        "generator" : "Khronos glTF Blender I/O v1.8.19",
        "version" : "2.0"
    },
    "scene" : 0,
    "scenes" : [
        {
            "name" : "Scene",
            "nodes" : [
                0
            ]
        }
    ],
    "nodes" : [
        {
            "mesh" : 0,
            "name" : "toothExp",
            "rotation" : [
                0.7071068286895752,
                0,
                0,
                0.7071067094802856
            ]
        }
    ],
    "materials" : [
        {
            "alphaMode" : "BLEND",
            "doubleSided" : true,
            "emissiveFactor" : [
                0.24602241814136505,
                0,
                0.00042986636981368065
            ],
            "name" : "aiStandardSurface2SG.001",
            "pbrMetallicRoughness" : {
                "baseColorFactor" : [
                    0.2536856234073639,
                    0,
                    0.0004893490695394576,
                    1
                ],
                "metallicFactor" : 0
            }
        },
        {
            "alphaMode" : "BLEND",
            "doubleSided" : true,
            "emissiveFactor" : [
                0.6835570931434631,
                0.6835570931434631,
                0.6835570931434631
            ],
            "name" : "initialShadingGroup",
            "pbrMetallicRoughness" : {
                "baseColorFactor" : [
                    0.9753995537757874,
                    1,
                    0.8420602679252625,
                    1
                ],
                "metallicFactor" : 0
            }
        }
    ],
    "meshes" : [
        {
            "name" : "toothExp",
            "primitives" : [
                {
                    "attributes" : {
                        "POSITION" : 0,
                        "NORMAL" : 1,
                        "TEXCOORD_0" : 2
                    },
                    "indices" : 3,
                    "material" : 0
                },
                {
                    "attributes" : {
                        "POSITION" : 4,
                        "NORMAL" : 5,
                        "TEXCOORD_0" : 6
                    },
                    "indices" : 7,
                    "material" : 1
                }
            ]
        }
    ],
    "accessors" : [
        {
            "bufferView" : 0,
            "componentType" : 5126,
            "count" : 164,
            "max" : [
                0.8356299996376038,
                0.8923689723014832,
                0.17551200091838837
            ],
            "min" : [
                -0.8786050081253052,
                -0.9038370251655579,
                -1.3675349950790405
            ],
            "type" : "VEC3"
        },
        {
            "bufferView" : 1,
            "componentType" : 5126,
            "count" : 164,
            "type" : "VEC3"
        },
        {
            "bufferView" : 2,
            "componentType" : 5126,
            "count" : 164,
            "type" : "VEC2"
        },
        {
            "bufferView" : 3,
            "componentType" : 5123,
            "count" : 498,
            "type" : "SCALAR"
        },
        {
            "bufferView" : 4,
            "componentType" : 5126,
            "count" : 270,
            "max" : [
                0.9790449738502502,
                0.9942640066146851,
                -0.20871199667453766
            ],
            "min" : [
                -0.9790449738502502,
                -1.0156569480895996,
                -3.322722911834717
            ],
            "type" : "VEC3"
        },
        {
            "bufferView" : 5,
            "componentType" : 5126,
            "count" : 270,
            "type" : "VEC3"
        },
        {
            "bufferView" : 6,
            "componentType" : 5126,
            "count" : 270,
            "type" : "VEC2"
        },
        {
            "bufferView" : 7,
            "componentType" : 5123,
            "count" : 1098,
            "type" : "SCALAR"
        }
    ],
    "bufferViews" : [
        {
            "buffer" : 0,
            "byteLength" : 1968,
            "byteOffset" : 0
        },
        {
            "buffer" : 0,
            "byteLength" : 1968,
            "byteOffset" : 1968
        },
        {
            "buffer" : 0,
            "byteLength" : 1312,
            "byteOffset" : 3936
        },
        {
            "buffer" : 0,
            "byteLength" : 996,
            "byteOffset" : 5248
        },
        {
            "buffer" : 0,
            "byteLength" : 3240,
            "byteOffset" : 6244
        },
        {
            "buffer" : 0,
            "byteLength" : 3240,
            "byteOffset" : 9484
        },
        {
            "buffer" : 0,
            "byteLength" : 2160,
            "byteOffset" : 12724
        },
        {
            "buffer" : 0,
            "byteLength" : 2196,
            "byteOffset" : 14884
        }
    ],
    "buffers" : [
        {
            "byteLength" : 17080,
            "uri" : "data:application/octet-stream;base64,"
        }
    ]
}
